<svg xmlns="http://www.w3.org/2000/svg" xmlns:xlink="http://www.w3.org/1999/xlink" version="1.1" width="482px" height="562px" viewBox="-0.5 -0.5 482 562"><defs/><g><path d="M 321 31 L 321 14.5 Q 321 1 307.5 1 L 174.5 1 Q 161 1 161 14.5 L 161 31" fill="#ffffff" stroke="#000000" stroke-width="2" stroke-miterlimit="10" pointer-events="all"/><path d="M 161 31 L 161 107.5 Q 161 121 174.5 121 L 307.5 121 Q 321 121 321 107.5 L 321 31" fill="none" stroke="#000000" stroke-width="2" stroke-miterlimit="10" pointer-events="none"/><path d="M 161 31 L 321 31" fill="none" stroke="#000000" stroke-width="2" stroke-miterlimit="10" pointer-events="none"/><g fill="#000000" font-family="Helvetica" pointer-events="none" text-anchor="middle" font-size="14px"><text x="240.5" y="21.5">OrderBase</text></g><g fill="#000000" font-family="Helvetica" pointer-events="none" font-size="12px"><text x="166.5" y="48.5">+ id</text><text x="166.5" y="62.5">+ client</text><text x="166.5" y="76.5">+ clentAddress</text><text x="166.5" y="90.5">+ receiver</text><text x="166.5" y="104.5">+ receiverAddress</text></g><path d="M 81 161 L 81 141 L 241 141 L 241 127.37" fill="none" stroke="#000000" stroke-miterlimit="10" pointer-events="none"/><path d="M 241 122.12 L 244.5 129.12 L 241 127.37 L 237.5 129.12 Z" fill="#000000" stroke="#000000" stroke-miterlimit="10" pointer-events="none"/><path d="M 161 191 L 161 174.5 Q 161 161 147.5 161 L 14.5 161 Q 1 161 1 174.5 L 1 191" fill="#ffffff" stroke="#000000" stroke-width="2" stroke-miterlimit="10" pointer-events="none"/><path d="M 1 191 L 1 217.5 Q 1 231 14.5 231 L 147.5 231 Q 161 231 161 217.5 L 161 191" fill="none" stroke="#000000" stroke-width="2" stroke-miterlimit="10" pointer-events="none"/><path d="M 1 191 L 161 191" fill="none" stroke="#000000" stroke-width="2" stroke-miterlimit="10" pointer-events="none"/><g fill="#000000" font-family="Helvetica" pointer-events="none" text-anchor="middle" font-size="14px"><text x="80.5" y="181.5">PrintOrder</text></g><g fill="#000000" font-family="Helvetica" pointer-events="none" font-size="12px"><text x="6.5" y="208.5">+ items[]</text></g><path d="M 401 161 L 401 141 L 241 141 L 241 127.37" fill="none" stroke="#000000" stroke-miterlimit="10" pointer-events="none"/><path d="M 241 122.12 L 244.5 129.12 L 241 127.37 L 237.5 129.12 Z" fill="#000000" stroke="#000000" stroke-miterlimit="10" pointer-events="none"/><path d="M 481 191 L 481 174.5 Q 481 161 467.5 161 L 334.5 161 Q 321 161 321 174.5 L 321 191" fill="#ffffff" stroke="#000000" stroke-width="2" stroke-miterlimit="10" pointer-events="none"/><path d="M 321 191 L 321 217.5 Q 321 231 334.5 231 L 467.5 231 Q 481 231 481 217.5 L 481 191" fill="none" stroke="#000000" stroke-width="2" stroke-miterlimit="10" pointer-events="none"/><path d="M 321 191 L 481 191" fill="none" stroke="#000000" stroke-width="2" stroke-miterlimit="10" pointer-events="none"/><g fill="#000000" font-family="Helvetica" pointer-events="none" text-anchor="middle" font-size="14px"><text x="400.5" y="181.5">UVOrder</text></g><g fill="#000000" font-family="Helvetica" pointer-events="none" font-size="12px"><text x="326.5" y="208.5">+ objects[]</text></g><path d="M 161 311 L 161 294.5 Q 161 281 147.5 281 L 14.5 281 Q 1 281 1 294.5 L 1 311" fill="#ffffff" stroke="#000000" stroke-width="2" stroke-miterlimit="10" pointer-events="none"/><path d="M 1 311 L 1 427.5 Q 1 441 14.5 441 L 147.5 441 Q 161 441 161 427.5 L 161 311" fill="none" stroke="#000000" stroke-width="2" stroke-miterlimit="10" pointer-events="none"/><path d="M 1 311 L 161 311" fill="none" stroke="#000000" stroke-width="2" stroke-miterlimit="10" pointer-events="none"/><g fill="#000000" font-family="Helvetica" pointer-events="none" text-anchor="middle" font-size="14px"><text x="80.5" y="301.5">PrintOrderItem</text></g><g fill="#000000" font-family="Helvetica" pointer-events="none" font-size="12px"><text x="6.5" y="328.5">+ name</text><text x="6.5" y="342.5">+ material</text><text x="6.5" y="356.5">+ height</text><text x="6.5" y="370.5">+ width</text><text x="6.5" y="384.5">+ count</text><text x="6.5" y="398.5">+ status</text><text x="6.5" y="412.5">+ history[]</text><text x="6.5" y="426.5">....</text></g><path d="M 81 231 L 81 281" fill="none" stroke="#000000" stroke-miterlimit="10" pointer-events="none"/><path d="M 481 311 L 481 294.5 Q 481 281 467.5 281 L 334.5 281 Q 321 281 321 294.5 L 321 311" fill="#ffffff" stroke="#000000" stroke-width="2" stroke-miterlimit="10" pointer-events="none"/><path d="M 321 311 L 321 347.5 Q 321 361 334.5 361 L 467.5 361 Q 481 361 481 347.5 L 481 311" fill="none" stroke="#000000" stroke-width="2" stroke-miterlimit="10" pointer-events="none"/><path d="M 321 311 L 481 311" fill="none" stroke="#000000" stroke-width="2" stroke-miterlimit="10" pointer-events="none"/><g fill="#000000" font-family="Helvetica" pointer-events="none" text-anchor="middle" font-size="14px"><text x="400.5" y="301.5">UVOrderObject</text></g><g fill="#000000" font-family="Helvetica" pointer-events="none" font-size="12px"><text x="326.5" y="328.5">+ name</text><text x="326.5" y="342.5">+ items[]</text></g><path d="M 481 431 L 481 414.5 Q 481 401 467.5 401 L 334.5 401 Q 321 401 321 414.5 L 321 431" fill="#ffffff" stroke="#000000" stroke-width="2" stroke-miterlimit="10" pointer-events="none"/><path d="M 321 431 L 321 547.5 Q 321 561 334.5 561 L 467.5 561 Q 481 561 481 547.5 L 481 431" fill="none" stroke="#000000" stroke-width="2" stroke-miterlimit="10" pointer-events="none"/><path d="M 321 431 L 481 431" fill="none" stroke="#000000" stroke-width="2" stroke-miterlimit="10" pointer-events="none"/><g fill="#000000" font-family="Helvetica" pointer-events="none" text-anchor="middle" font-size="14px"><text x="400.5" y="421.5">UVOrderObjectItem</text></g><g fill="#000000" font-family="Helvetica" pointer-events="none" font-size="12px"><text x="326.5" y="448.5">+ name</text><text x="326.5" y="462.5">+ material</text><text x="326.5" y="476.5">+ height</text><text x="326.5" y="490.5">+ width</text><text x="326.5" y="504.5">+ count</text><text x="326.5" y="518.5">+ status</text><text x="326.5" y="532.5">+ history[]</text><text x="326.5" y="546.5">....</text></g><path d="M 401 231 L 401 281" fill="none" stroke="#000000" stroke-miterlimit="10" pointer-events="none"/><path d="M 401 361 L 401 401" fill="none" stroke="#000000" stroke-miterlimit="10" pointer-events="none"/></g></svg>